<?xml version="1.0" encoding="UTF-8"?>
<svg id="Layer_2" data-name="Layer 2" xmlns="http://www.w3.org/2000/svg" viewBox="0 0 154.2 51.4">
  <defs>
    <style>
      .cls-1 {
        fill: #dd524c;
      }
    </style>
  </defs>
  <g id="Layer_1-2" data-name="Layer 1">
    <path class="cls-1" d="M11.89,39.65c-7.37-3.61-15.49-10.51-10.19-16.82,4.91-5.84,14.52-9.36,22.1-11.14l8.89-2.08c3.95-.93,8.14-1.2,12.04-2.4,9.96-3.09,19.62-5.55,30.1-6.63,16.2-1.67,31.34.32,46.82,5.73,10.43,3.64,25.32,10.42,31.1,19.04,2.55,3.8,1.6,8.31-1.83,11.23-4.05,3.45-8.66,5.66-13.85,7.3-29.46,9.33-67.85,9.22-98.3,3.84-9.42-1.66-18.36-3.89-26.88-8.07ZM4.45,22.54c-5.04,5.65,3.45,12.31,10.67,15.72,6.24,2.95,12.53,4.86,19.4,6.33,23.24,4.97,46.93,6.21,70.59,4.04,6.85-.63,13.23-1.66,19.91-2.92,8.48-1.6,19.76-4.3,25.05-10.68,9.85-11.88-27.05-27.24-39.43-29.67l-6.27-.2-14.06-.4c-12.65-.36-35.19,2.41-48.1,5.02-3.42.69-9.07,5.84-8.21,7.13l1.88,2.81c-1.05-.04-3.29-1.64-2.83-3.04.99-3.03,3.68-4.51,6.1-6.43-11.04,2.24-27.63,4.36-34.7,12.29ZM90.98,2.83l7.64.29c-.64-.45-1.19-.56-1.95-.66-7.38-.93-14.53-1.03-21.96-.4-5.44.85-10.9.92-16.24,2.98,11.06-1.13,21.6-2.63,32.51-2.22Z"/>
  </g>
</svg>